- 
http://www.Speed.Cd 
       
http://www.Speed.Cd      fast  and The Hottest Private Tracker on the net

(((--Submit for invite!!--)))

Please Seed back to make the speed Faster!!!

------------------nfo--------------------------
-[img]http://img37.imageshack.us/img37/6589/theenleddvd.jpg[/img]


[color=blue][size=5][b]The.Entitled.2011.DVDRip.XVID.AC3.HQ.Hive-CM8[/b][/size][/color]


[b]Thx Hive

CM8 Doing It Right The First Time :D


Source: DVD-R

Encode:
dvd was very nice, also has an alternate ending on the dvd...
included it in a separate file for the ones who want it.
added brightness, sharpness, rgb, denoise
enjoy

Video: 720x304 @bitrate 1800 2pass
Audio: English AC3 5.1 @448
Sample: yes included
Bonus: yes, the alternate ending
in a seperate file[/b]


[url]http://www.imdb.com/title/tt1650535/[/url]


General
Complete name                    : The.Entitled.2011.DVDRip.XVID.AC3.HQ.Hive-CM8.avi
Format                           : AVI
Format/Info                      : Audio Video Interleave
File size                        : 1.44 GiB
Duration                         : 1h 31mn
Overall bit rate                 : 2 257 Kbps
Writing application              : Nandub v1.0rc2
Writing library                  : Nandub build 1853/release

Video
ID                               : 0
Format                           : MPEG-4 Visual
Format profile                   : Advanced Simple@L5
Format settings, BVOP            : 1
Format settings, QPel            : Yes
Format settings, GMC             : No warppoints
Format settings, Matrix          : Default (H.263)
Muxing mode                      : Packed bitstream
Codec ID                         : XVID
Codec ID/Hint                    : XviD
Duration                         : 1h 31mn
Bit rate                         : 1 800 Kbps
Width                            : 720 pixels
Height                           : 304 pixels
Display aspect ratio             : 2.35:1
Frame rate                       : 23.976 fps
Color space                      : YUV
Chroma subsampling               : 4:2:0
Bit depth                        : 8 bits
Scan type                        : Progressive
Compression mode                 : Lossy
Bits/(Pixel*Frame)               : 0.343
Stream size                      : 1.15 GiB (80%)
Writing library                  : XviD 1.2.1 (UTC 2008-12-04)

Audio
ID                               : 1
Format                           : AC-3
Format/Info                      : Audio Coding 3
Mode extension                   : CM (complete main)
Codec ID                         : 2000
Duration                         : 1h 31mn
Bit rate mode                    : Constant
Bit rate                         : 448 Kbps
Channel(s)                       : 6 channels
Channel positions                : Front: L C R, Side: L R, LFE
Sampling rate                    : 48.0 KHz
Bit depth                        : 16 bits
Compression mode                 : Lossy
Stream size                      : 292 MiB (20%)
Alignment                        : Split accross interleaves
Interleave, duration             : 42 ms (1.00 video frame)
Interleave, preload duration     : 500 ms


Plot:
Paul Dynan's life is turned upside down when he decides to kidnap
three young socialites and hold them ransom to save his family.


Cast:
Ray Liotta        ...    Richard Nader
Dustin Milligan   ...    Nick Nader
Kevin Zegers      ...    Paul Dynan
Laura Vandervoort ...    Hailey Jones
Victor Garber     ...    Bob Vincent


[img]http://img534.imageshack.us/img534/6078/96504740.png[/img]
[img]http://img32.imageshack.us/img32/1332/enenenenenenenen.png[/img]
[img]http://img801.imageshack.us/img801/7113/enen.png[/img]
[img]http://img850.imageshack.us/img850/9344/enenen.png[/img]
[img]http://img839.imageshack.us/img839/8795/enenenen.png[/img]
[img]http://img38.imageshack.us/img38/4125/enenenenen.png[/img]
[img]http://img708.imageshack.us/img708/7107/enenenenenen.png[/img]
[img]http://img508.imageshack.us/img508/7310/enenenenenenen.png[/img]



Greetz

ViSiON,SiC,SANTi,3LT0N,YanKeeS,MAGNET,THC,T0XiC,LKRG,FANTASIA-PLAY,FANTASIA-M,BHRG,FLAWL3SS,
D2U,WBZ,NOVA,Vik,Rapeseed,SAFC,goldadvance,MEMORY100,scumbag,KaN1vE,Unevano,Pinnz,Wayne
Mr Hive,cedrict wink,and all P2P groups
Great Work Guys :D

FYS

LOOKING FOR ANYTHING YOU WANT TO LOOK AND SOUND BETTER

CM8@hushmail.com